<?xml version="1.0" encoding="UTF-8"?>
<svg width="550px" height="550px" viewBox="0 0 550 550" version="1.1" xmlns="http://www.w3.org/2000/svg" xmlns:xlink="http://www.w3.org/1999/xlink">
    <title>pay</title>
    <g id="Page-1" stroke="none" stroke-width="1" fill="none" fill-rule="evenodd">
        <g id="Fixtures-Copy-4" transform="translate(-100.000000, -100.000000)" fill-rule="nonzero">
            <g id="pay" transform="translate(100.000000, 100.000000)">
                <path d="M423,550 L0,550 L0,127.537794 C0,57.2111651 57.023689,0 127.111852,0 L423,0 C493.096551,0 550,57.2111651 550,127.537794 L550,422.461656 C550,492.788285 493.096551,550 423,550 Z" id="Path" fill="#585FFF"></path>
                <g id="Group" transform="translate(159.000000, 151.000000)" fill="#FFFFFF">
                    <path d="M90.4752848,0 L0,0 L0,246.57173 L45.803708,246.57173 L45.803708,171.889482 L91.4164343,171.889482 C102.697844,171.87847 113.867802,169.629137 124.282364,165.275013 C134.696926,160.919512 144.152451,154.543191 152.106815,146.510844 C160.061179,138.478496 166.357524,128.948429 170.635351,118.467145 C174.913178,107.985861 177.087179,96.7612228 177.03316,85.4347181 C176.766582,37.9812337 137.719887,0 90.4752848,0 Z M90.7477228,125.929588 L45.803708,125.929588 L45.803708,45.9364927 L91.4164343,45.9364927 C96.7083361,45.9447521 101.9452,47.0088489 106.822941,49.0682134 C111.700682,51.1289545 116.121608,54.1422893 119.82704,57.9361452 C123.532472,61.7286246 126.449485,66.2231601 128.407461,71.1595779 C130.365437,76.0946192 131.324474,81.372429 131.229533,86.6846533 C130.812621,108.570907 112.548267,125.89242 90.7477228,125.89242 L90.7477228,125.929588 Z" id="Shape"></path>
                    <path d="M204.909719,248.312236 C220.296217,248.312236 232.77083,235.714038 232.77083,220.174051 C232.77083,204.634064 220.296217,192.035865 204.909719,192.035865 C189.521849,192.035865 177.048608,204.634064 177.048608,220.174051 C177.048608,235.714038 189.521849,248.312236 204.909719,248.312236 Z" id="Path"></path>
                </g>
            </g>
        </g>
    </g>
</svg>